<svg width="1024" height="1024" viewBox="0 0 1024 1024" fill="none" xmlns="http://www.w3.org/2000/svg">
<path d="M757.405 11.805C750.95 0.551002 737.994 -2.65097 726.663 2.17553L513.001 95.3152C511.376 95.3152 509.75 95.3152 508.148 95.3152L294.486 2.17553C283.156 -2.65097 270.199 2.17553 263.721 11.805C257.243 23.0354 260.494 35.8904 271.825 42.3179L479.008 169.196C479.008 169.196 495.192 178.825 509.75 178.825C527.559 178.825 542.141 169.196 542.141 169.196L749.325 42.3179C759.031 35.8904 762.281 23.0354 757.405 11.805Z" fill="#EF43B3"/>
<path d="M187.216 128.948L471.506 366.368C471.506 366.368 489.279 382.626 508.673 382.626C526.422 382.626 545.817 366.368 545.817 366.368L830.107 128.948C841.414 120.818 846.257 106.181 838.194 93.1641C831.729 80.1714 815.578 75.2842 802.649 81.7925L534.509 262.283L510.272 276.921C508.673 276.921 505.429 276.921 502.208 276.921L477.971 262.283L209.831 81.7925C196.902 75.2842 182.373 81.7925 174.286 93.1641C167.821 106.181 171.066 120.818 182.373 128.948H187.216Z" fill="#EF43B3"/>
<path d="M1011.99 758.027C1023.42 751.558 1026.7 738.643 1021.8 727.316L927.092 513.953C927.092 512.341 927.092 510.73 927.092 509.119L1021.8 295.755C1026.7 284.428 1021.8 271.514 1011.99 265.044C1000.56 258.575 987.515 261.798 980.981 273.125L852.009 480.019C852.009 480.019 842.196 496.18 842.196 510.73C842.196 528.502 852.009 543.052 852.009 543.052L980.981 749.946C987.515 759.638 1000.56 762.885 1011.99 758.027Z" fill="#EF43B3"/>
<path d="M894.544 186.157L657.924 472.202C657.924 472.202 641.72 490.072 641.72 509.587C641.72 527.457 657.924 546.972 657.924 546.972L894.544 833.017C902.658 844.383 917.235 849.267 930.207 841.142C943.156 834.637 948.015 818.387 941.552 805.378L761.658 535.582L747.057 511.207C747.057 509.587 747.057 506.323 747.057 503.082L761.658 478.707L941.552 208.912C948.015 195.902 941.552 181.272 930.207 173.147C917.235 166.642 902.658 169.906 894.544 181.272V186.157Z" fill="#EF43B3"/>
<path d="M263.65 1012.2C270.166 1023.43 283.175 1026.66 294.573 1021.83L509.522 928.687C511.134 928.687 512.769 928.687 514.404 928.687L729.329 1021.83C740.727 1026.66 753.737 1021.83 760.253 1012.2C766.77 1000.94 763.523 988.09 752.125 981.685L543.692 854.804C543.692 854.804 527.413 845.175 512.769 845.175C494.854 845.175 480.21 854.804 480.21 854.804L271.777 981.685C262.014 988.09 258.768 1000.94 263.65 1012.2Z" fill="#EF43B3"/>
<path d="M835.724 895.722L550.188 656.74C550.188 656.74 532.337 640.375 512.881 640.375C495.031 640.375 475.551 656.74 475.551 656.74L190.015 895.722C178.658 903.905 173.794 918.639 181.893 931.741C188.386 944.819 204.607 949.739 217.594 943.188L486.909 761.509L511.252 746.776C512.881 746.776 516.116 746.776 519.351 746.776L543.695 761.509L813.009 943.188C825.996 949.739 840.611 943.188 848.71 931.741C855.203 918.639 851.969 903.905 840.611 895.722H835.724Z" fill="#EF43B3"/>
<path d="M12.0044 265.966C0.575124 272.448 -2.70396 285.412 2.21467 296.738L96.9043 510.526C96.9043 512.165 96.9043 513.779 96.9043 515.394L2.21467 729.182C-2.70396 740.507 2.21467 753.471 12.0044 759.953C23.4337 766.435 36.5025 763.183 43.0132 751.857L172.014 544.551C172.014 544.551 181.804 528.358 181.804 513.779C181.804 495.948 172.014 481.369 172.014 481.369L43.0132 274.087C36.5025 264.352 23.4337 261.123 12.0044 265.966Z" fill="#EF43B3"/>
<path d="M129.283 837.137L365.147 551.936C365.147 551.936 381.298 534.118 381.298 514.661C381.298 496.844 365.147 477.387 365.147 477.387L129.283 188.955C121.219 177.599 106.691 172.752 93.7609 180.853C80.831 187.339 75.9882 203.541 82.4531 216.512L261.755 485.512L276.284 509.815C276.284 511.43 276.284 514.661 276.284 517.916L261.755 542.219L82.4531 811.218C75.9882 824.19 82.4531 838.776 93.7609 846.877C106.691 853.339 121.219 850.108 129.283 838.776V837.137Z" fill="#EF43B3"/>
</svg>
